<?xml version="1.0" encoding="utf-8"?>
<svg viewBox="528.64 76.292 280 370" xmlns="http://www.w3.org/2000/svg">
  <path style="fill: none; stroke-width: 10px; stroke: rgb(255, 255, 255);" d="M 534.701 160.602 L 535.35 160.322 L 668.762 82.727 L 802.711 160.577 L 802.711 361.149 L 668.321 439.256 L 534.776 361.641 L 534.701 160.602 Z"/>
  <path style="fill: none; stroke-width: 10px; stroke: rgb(255, 255, 255);" d="M 557.94 260.603 L 668.287 197.558 L 779.113 260.731 L 668.918 324.576 L 557.94 260.603 Z"/>
  <path style="stroke-width: 12px; stroke: rgb(255, 255, 255); fill: rgb(239, 239, 239);" d="M 648.283 260.744 L 668.614 249.006 L 688.945 260.744 L 668.315 272.655 L 648.283 260.744 Z"/>
  <path style="stroke-width: 12px; fill: none; stroke: rgb(255, 255, 255);" d="M 588.959 185.804 L 618.066 169 L 647.423 185.949 L 618.071 202.895 L 588.959 185.804 Z"/>
  <path style="stroke-width: 12px; fill: none; stroke: rgb(255, 255, 255);" d="M 638.995 156.819 L 668.102 140.015 L 697.459 156.964 L 668.107 173.91 L 638.995 156.819 Z"/>
  <path style="stroke-width: 12px; fill: none; stroke: rgb(255, 255, 255);" d="M 689.101 185.775 L 718.208 168.971 L 747.565 185.92 L 718.213 202.866 L 689.101 185.775 Z"/>
  <path style="stroke-width: 12px; fill: none; stroke: rgb(255, 255, 255);" d="M 689.55 335.664 L 718.657 318.86 L 748.014 335.809 L 718.662 352.755 L 689.55 335.664 Z" transform="matrix(-1, 0, 0, -1, 1437.563965, 671.61499)"/>
  <path style="stroke-width: 12px; fill: none; stroke: rgb(255, 255, 255);" d="M 639.514 364.649 L 668.621 347.845 L 697.978 364.794 L 668.626 381.74 L 639.514 364.649 Z" transform="matrix(-1, 0, 0, -1, 1337.491943, 729.585022)"/>
  <path style="stroke-width: 12px; fill: none; stroke: rgb(255, 255, 255);" d="M 589.408 335.693 L 618.515 318.889 L 647.872 335.838 L 618.52 352.784 L 589.408 335.693 Z" transform="matrix(-1, 0, 0, -1, 1237.280029, 671.673035)"/>
  <path style="stroke: rgb(237, 41, 57); fill: rgb(237, 41, 57);" d="M 548.237 249.389 L 548.237 168.569 L 668.582 99.088 L 789.009 168.617 L 789.009 249.982 C 789.009 249.982 768.556 238.121 768.465 238.121 L 768.465 180.39 L 668.713 122.798 L 569.142 180.285 L 569.142 237.817 L 548.237 249.389 Z"/>
  <path style="stroke: rgb(237, 41, 57); fill: rgb(237, 41, 57);" d="M 548.36 422.447 L 548.36 341.627 L 668.705 272.146 L 789.132 341.675 L 789.132 423.04 C 789.132 423.04 768.679 411.179 768.588 411.179 L 768.588 353.448 L 668.836 295.856 L 569.265 353.343 L 569.265 410.875 L 548.36 422.447 Z" transform="matrix(-1, 0, 0, -1, 1337.491943, 695.185974)"/>
</svg>